<svg width="384" height="192" viewBox="0 0 384 192" xmlns="http://www.w3.org/2000/svg"><rect width="384" height="192" fill="url(#dogyBg)"/><rect x="0" y="0" width="384" height="40" fill="rgba(139, 69, 19, 0.8)"/><text x="192" y="26" text-anchor="middle" fill="#FFFFFF" font-family="Arial, sans-serif" font-size="18" font-weight="bold">MY DOGY VIRTUAL PET</text><ellipse cx="140" cy="125" rx="35" ry="30" fill="#D2691E"/><ellipse cx="140" cy="90" rx="25" ry="28" fill="#DEB887"/><ellipse cx="120" cy="75" rx="8" ry="15" fill="#CD853F"/><ellipse cx="160" cy="75" rx="8" ry="15" fill="#CD853F"/><circle cx="130" cy="85" r="6" fill="#000"/><circle cx="150" cy="85" r="6" fill="#000"/><circle cx="132" cy="83" r="2" fill="#FFF"/><circle cx="152" cy="83" r="2" fill="#FFF"/><ellipse cx="140" cy="95" rx="3" ry="2" fill="#000"/><path d="M135 100 Q140 105 145 100" stroke="#000" stroke-width="2"/><ellipse cx="175" cy="120" rx="3" ry="15" fill="#CD853F" transform="rotate(20 175 120)"/><ellipse cx="70" cy="160" rx="22" ry="10" fill="#8B4513"/><ellipse cx="70" cy="155" rx="20" ry="8" fill="#D2691E"/><text x="70" y="160" text-anchor="middle" fill="#FFF" font-size="8">DOGY</text><ellipse cx="250" cy="150" rx="15" ry="5" fill="#F5DEB3"/><circle cx="235" cy="150" r="7" fill="#F5DEB3"/><circle cx="265" cy="150" r="7" fill="#F5DEB3"/><circle cx="320" cy="130" r="15" fill="#FF6347"/><circle cx="315" cy="125" r="3" fill="#FFF"/><circle cx="50" cy="70" r="4" fill="#E6F3FF" opacity="0.8"/><circle cx="65" cy="65" r="3" fill="#E6F3FF" opacity="0.8"/><circle cx="45" cy="85" r="5" fill="#E6F3FF" opacity="0.8"/><ellipse cx="300" cy="70" rx="20" ry="6" fill="#FF69B4"/><ellipse cx="300" cy="70" rx="15" ry="4" fill="#FF1493"/><path d="M180 60 Q175 55 170 60 Q165 55 160 60 Q160 65 170 75 Q180 65 180 60" fill="#FF69B4"/><path d="M200 85 Q197 82 194 85 Q191 82 188 85 Q188 88 194 95 Q200 88 200 85" fill="#FF1493"/><path d="M110 100 Q90 110 80 130" stroke="#654321" stroke-width="3"/><circle cx="80" cy="130" r="5" fill="#654321"/><ellipse cx="220" cy="170" rx="4" ry="3" fill="#8B4513" opacity="0.6"/><circle cx="218" cy="168" r="1" fill="#8B4513" opacity="0.6"/><circle cx="222" cy="168" r="1" fill="#8B4513" opacity="0.6"/><circle cx="220" cy="165" r="1" fill="#8B4513" opacity="0.6"/><ellipse cx="240" cy="175" rx="4" ry="3" fill="#8B4513" opacity="0.6"/><circle cx="238" cy="173" r="1" fill="#8B4513" opacity="0.6"/><circle cx="242" cy="173" r="1" fill="#8B4513" opacity="0.6"/><circle cx="240" cy="170" r="1" fill="#8B4513" opacity="0.6"/><text x="190" y="110" fill="#FF6B6B" font-size="20">♥</text><defs><linearGradient id="dogyBg" x1="0%" y1="0%" x2="100%" y2="100%"><stop offset="0%" stop-color="#98FB98"/><stop offset="50%" stop-color="#90EE90"/><stop offset="100%" stop-color="#32CD32"/></linearGradient></defs></svg>