<svg width="384" height="192" viewBox="0 0 384 192" xmlns="http://www.w3.org/2000/svg"><rect width="384" height="192" fill="url(#careSalonBg)"/><rect x="0" y="0" width="384" height="40" fill="rgba(32, 178, 170, 0.9)"/><text x="192" y="26" text-anchor="middle" fill="#FFFFFF" font-family="Arial, sans-serif" font-size="16" font-weight="bold">MY PET CARE SALON - SPA &amp; STYLE</text><rect x="20" y="140" width="344" height="20" fill="#20B2AA"/><rect x="20" y="138" width="344" height="4" fill="#2DD4BF"/><ellipse cx="100" cy="115" rx="25" ry="20" fill="#DEB887"/><ellipse cx="100" cy="100" rx="18" ry="16" fill="#F5DEB3"/><ellipse cx="85" cy="87" rx="7" ry="12" fill="#DEB887"/><ellipse cx="115" cy="87" rx="7" ry="12" fill="#DEB887"/><circle cx="93" cy="96" r="4" fill="#000"/><circle cx="107" cy="96" r="4" fill="#000"/><circle cx="95" cy="94" r="1" fill="#FFF"/><circle cx="109" cy="94" r="1" fill="#FFF"/><ellipse cx="100" cy="104" rx="3" ry="2" fill="#000"/><ellipse cx="100" cy="118" rx="22" ry="4" fill="#FF1493"/><circle cx="100" cy="118" r="3" fill="#FFD700"/><ellipse cx="180" cy="115" rx="22" ry="18" fill="#FFB6C1"/><ellipse cx="180" cy="102" rx="16" ry="15" fill="#FFC0CB"/><path d="M165 88 L170 78 L175 88 Z" fill="#FFB6C1"/><path d="M185 88 L190 78 L195 88 Z" fill="#FFB6C1"/><ellipse cx="172" cy="98" rx="4" ry="5" fill="#000"/><ellipse cx="188" cy="98" rx="4" ry="5" fill="#000"/><ellipse cx="173" cy="96" rx="2" ry="3" fill="#00FF00"/><ellipse cx="189" cy="96" rx="2" ry="3" fill="#00FF00"/><path d="M180 106 L178 108 L182 108 Z" fill="#FF69B4"/><path d="M170 85 Q165 80 160 85 Q165 90 170 85" fill="#DA70D6"/><path d="M170 85 Q175 80 180 85 Q175 90 170 85" fill="#DA70D6"/><circle cx="170" cy="85" r="2" fill="#8B008B"/><rect x="250" y="60" width="25" height="40" rx="5" fill="#4682B4"/><rect x="255" y="55" width="15" height="8" rx="2" fill="#87CEEB"/><text x="262" y="59" text-anchor="middle" fill="#FFF" font-size="6">SPA</text><rect x="290" y="75" width="20" height="35" rx="10" fill="#4169E1"/><rect x="310" y="85" width="30" height="12" rx="6" fill="#1E90FF"/><path d="M340 91 Q355 91 365 96" stroke="#87CEEB" stroke-width="4"/><rect x="40" y="60" width="12" height="35" rx="6" fill="#8B4513"/><rect x="35" y="55" width="22" height="12" rx="4" fill="#DEB887"/><line x1="37" y1="55" x2="37" y2="50" stroke="#654321" stroke-width="2"/><line x1="43" y1="55" x2="43" y2="47" stroke="#654321" stroke-width="2"/><line x1="49" y1="55" x2="49" y2="50" stroke="#654321" stroke-width="2"/><line x1="55" y1="55" x2="55" y2="47" stroke="#654321" stroke-width="2"/><rect x="300" y="110" width="60" height="25" rx="5" fill="#FF69B4"/><text x="330" y="125" text-anchor="middle" fill="#FFF" font-size="10" font-weight="bold">OUTFIT SHOP</text><path d="M310 105 Q315 100 320 105 L318 115 L312 115 Z" fill="#FF1493"/><path d="M325 100 Q320 95 315 100 Q320 105 325 100" fill="#4169E1"/><path d="M325 100 Q330 95 335 100 Q330 105 325 100" fill="#4169E1"/><ellipse cx="345" cy="98" rx="10" ry="3" fill="#8B4513"/><ellipse cx="345" cy="95" rx="8" ry="8" fill="#DEB887"/><ellipse cx="60" cy="125" rx="45" ry="20" fill="#87CEEB"/><ellipse cx="60" cy="120" rx="43" ry="17" fill="#B0E0E6"/><circle cx="35" cy="100" r="5" fill="#E6F3FF" opacity="0.9"/><circle cx="50" cy="95" r="4" fill="#E6F3FF" opacity="0.9"/><circle cx="70" cy="97" r="5" fill="#E6F3FF" opacity="0.9"/><circle cx="85" cy="92" r="4" fill="#E6F3FF" opacity="0.9"/><circle cx="40" cy="108" r="3" fill="#E6F3FF" opacity="0.8"/><circle cx="80" cy="105" r="3" fill="#E6F3FF" opacity="0.8"/><rect x="200" y="110" width="18" height="35" rx="9" fill="#FF6347"/><rect x="225" y="110" width="18" height="35" rx="9" fill="#32CD32"/><text x="209" y="130" text-anchor="middle" fill="#FFF" font-size="6">CARE</text><text x="234" y="130" text-anchor="middle" fill="#FFF" font-size="6">STYLE</text><rect x="15" y="50" width="4" height="10" rx="2" fill="#FFB6C1"/><ellipse cx="17" cy="48" rx="2" ry="1" fill="#FF4500"/><rect x="365" y="55" width="4" height="10" rx="2" fill="#FFB6C1"/><ellipse cx="367" cy="53" rx="2" ry="1" fill="#FF4500"/><circle cx="30" cy="75" r="12" fill="#FFFF00"/><circle cx="26" cy="71" r="2" fill="#000"/><circle cx="34" cy="71" r="2" fill="#000"/><path d="M25 80 Q30 85 35 80" stroke="#000" stroke-width="1"/><text x="30" y="95" text-anchor="middle" fill="#20B2AA" font-size="6">HAPPY</text><path d="M350 45 L352 51 L358 51 L353 55 L355 61 L350 57 L345 61 L347 55 L342 51 L348 51 Z" fill="#FFD700"/><text x="350" y="72" text-anchor="middle" fill="#FFD700" font-size="8">★ LUXURY ★</text><text x="140" y="75" fill="#FF69B4" font-size="16">♥</text><text x="140" y="60" text-anchor="middle" fill="#20B2AA" font-size="8">STYLED!</text><defs><linearGradient id="careSalonBg" x1="0%" y1="0%" x2="100%" y2="100%"><stop offset="0%" stop-color="#E0FFFF"/><stop offset="30%" stop-color="#AFEEEE"/><stop offset="70%" stop-color="#40E0D0"/><stop offset="100%" stop-color="#2DD4BF"/></linearGradient></defs></svg>