<svg width="384" height="192" viewBox="0 0 384 192" xmlns="http://www.w3.org/2000/svg"><rect width="384" height="192" fill="url(#salon2Bg)"/><rect x="0" y="0" width="384" height="40" fill="rgba(218, 112, 214, 0.9)"/><text x="192" y="26" text-anchor="middle" fill="#FFFFFF" font-family="Arial, sans-serif" font-size="18" font-weight="bold">PET SALON 2 - ENHANCED!</text><rect x="20" y="140" width="344" height="20" fill="#800080"/><rect x="20" y="138" width="344" height="4" fill="#9932CC"/><ellipse cx="110" cy="115" rx="22" ry="18" fill="#DEB887"/><ellipse cx="110" cy="100" rx="16" ry="14" fill="#F5DEB3"/><ellipse cx="95" cy="90" rx="6" ry="10" fill="#DEB887"/><ellipse cx="125" cy="90" rx="6" ry="10" fill="#DEB887"/><circle cx="105" cy="97" r="3" fill="#000"/><circle cx="115" cy="97" r="3" fill="#000"/><circle cx="106" cy="95" r="1" fill="#FFF"/><circle cx="116" cy="95" r="1" fill="#FFF"/><ellipse cx="110" cy="103" rx="2" ry="1" fill="#000"/><path d="M105 110 Q100 105 95 110 Q100 115 105 110" fill="#FF1493"/><path d="M105 110 Q110 105 115 110 Q110 115 105 110" fill="#FF1493"/><ellipse cx="170" cy="115" rx="20" ry="16" fill="#FFB6C1"/><ellipse cx="170" cy="102" rx="15" ry="13" fill="#FFC0CB"/><path d="M155 90 L160 80 L165 90 Z" fill="#FFB6C1"/><path d="M175 90 L180 80 L185 90 Z" fill="#FFB6C1"/><ellipse cx="163" cy="99" rx="3" ry="4" fill="#000"/><ellipse cx="177" cy="99" rx="3" ry="4" fill="#000"/><ellipse cx="164" cy="97" rx="1" ry="2" fill="#00FF00"/><ellipse cx="178" cy="97" rx="1" ry="2" fill="#00FF00"/><path d="M170 105 L168 107 L172 107 Z" fill="#FF69B4"/><path d="M155 85 L160 75 L165 80 L170 72 L175 80 L180 75 L185 85" stroke="#FFD700" stroke-width="2"/><circle cx="170" cy="72" r="2" fill="#FFD700"/><rect x="250" y="70" width="18" height="30" rx="9" fill="#4169E1"/><rect x="268" y="78" width="25" height="10" rx="5" fill="#1E90FF"/><path d="M293 83 Q305 83 315 88" stroke="#87CEEB" stroke-width="3"/><ellipse cx="320" cy="60" rx="4" ry="15" fill="#C0C0C0" transform="rotate(30 320 60)"/><ellipse cx="328" cy="68" rx="4" ry="15" fill="#C0C0C0" transform="rotate(30 328 68)"/><circle cx="324" cy="74" r="3" fill="#FFD700"/><rect x="50" y="65" width="10" height="30" rx="5" fill="#8B4513"/><rect x="45" y="60" width="20" height="10" rx="3" fill="#DEB887"/><line x1="47" y1="60" x2="47" y2="55" stroke="#654321" stroke-width="2"/><line x1="52" y1="60" x2="52" y2="52" stroke="#654321" stroke-width="2"/><line x1="57" y1="60" x2="57" y2="55" stroke="#654321" stroke-width="2"/><line x1="62" y1="60" x2="62" y2="52" stroke="#654321" stroke-width="2"/><rect x="280" y="115" width="15" height="30" rx="7" fill="#FF6347"/><rect x="300" y="115" width="15" height="30" rx="7" fill="#32CD32"/><text x="287" y="132" text-anchor="middle" fill="#FFF" font-size="6">PUPPY</text><text x="307" y="132" text-anchor="middle" fill="#FFF" font-size="6">KITTEN</text><ellipse cx="70" cy="125" rx="40" ry="18" fill="#87CEEB"/><ellipse cx="70" cy="120" rx="38" ry="15" fill="#B0E0E6"/><circle cx="50" cy="105" r="4" fill="#FFF" opacity="0.9"/><circle cx="62" cy="100" r="3" fill="#FFF" opacity="0.9"/><circle cx="78" cy="102" r="4" fill="#FFF" opacity="0.9"/><circle cx="88" cy="98" r="3" fill="#FFF" opacity="0.9"/><circle cx="55" cy="112" r="2" fill="#FFF" opacity="0.8"/><circle cx="85" cy="108" r="2" fill="#FFF" opacity="0.8"/><rect x="200" y="100" width="40" height="15" rx="3" fill="#FF69B4"/><text x="220" y="110" text-anchor="middle" fill="#FFF" font-size="8">OUTFITS</text><path d="M340 45 L345 35 L350 40 L355 30 L360 40 L365 35 L370 45" stroke="#FFD700" stroke-width="2" fill="#FFD700" opacity="0.3"/><ellipse cx="25" cy="45" rx="15" ry="3" fill="#FF1493"/><circle cx="20" cy="45" r="2" fill="#FFD700"/><circle cx="30" cy="45" r="2" fill="#FFD700"/><path d="M40 50 L42 56 L48 56 L43 60 L45 66 L40 62 L35 66 L37 60 L32 56 L38 56 Z" fill="#FFD700"/><path d="M355 50 L357 56 L363 56 L358 60 L360 66 L355 62 L350 66 L352 60 L347 56 L353 56 Z" fill="#FFD700"/><text x="40" y="78" text-anchor="middle" fill="#FFD700" font-size="8">5★</text><text x="355" y="78" text-anchor="middle" fill="#FFD700" font-size="8">5★</text><circle cx="25" cy="85" r="10" fill="#FFFF00"/><circle cx="21" cy="81" r="2" fill="#000"/><circle cx="29" cy="81" r="2" fill="#000"/><path d="M20 90 Q25 95 30 90" stroke="#000" stroke-width="1"/><circle cx="360" cy="85" r="10" fill="#FFFF00"/><circle cx="356" cy="81" r="2" fill="#000"/><circle cx="364" cy="81" r="2" fill="#000"/><path d="M355 90 Q360 95 365 90" stroke="#000" stroke-width="1"/><ellipse cx="320" cy="120" rx="25" ry="12" fill="#FF4500"/><text x="320" y="125" text-anchor="middle" fill="#FFF" font-size="10" font-weight="bold">ENHANCED</text><defs><linearGradient id="salon2Bg" x1="0%" y1="0%" x2="100%" y2="100%"><stop offset="0%" stop-color="#FFE4E1"/><stop offset="30%" stop-color="#FFCCCB"/><stop offset="70%" stop-color="#FF69B4"/><stop offset="100%" stop-color="#DA70D6"/></linearGradient></defs></svg>