<svg width="384" height="192" viewBox="0 0 384 192" xmlns="http://www.w3.org/2000/svg"><rect width="384" height="192" fill="url(#salonBg)"/><rect x="0" y="0" width="384" height="40" fill="rgba(255, 20, 147, 0.8)"/><text x="192" y="26" text-anchor="middle" fill="#FFFFFF" font-family="Arial, sans-serif" font-size="18" font-weight="bold">PET SALON</text><rect x="20" y="140" width="344" height="20" fill="#8B4513"/><rect x="20" y="138" width="344" height="4" fill="#A0522D"/><ellipse cx="140" cy="120" rx="25" ry="20" fill="#FFB6C1"/><ellipse cx="140" cy="105" rx="18" ry="15" fill="#FFC0CB"/><path d="M125 95 L130 85 L135 95 Z" fill="#FFB6C1"/><path d="M145 95 L150 85 L155 95 Z" fill="#FFB6C1"/><circle cx="132" cy="102" r="4" fill="#000"/><circle cx="148" cy="102" r="4" fill="#000"/><circle cx="134" cy="100" r="1" fill="#FFF"/><circle cx="150" cy="100" r="1" fill="#FFF"/><path d="M140 108 L138 110 L142 110 Z" fill="#FF69B4"/><path d="M135 112 Q140 115 145 112" stroke="#000" stroke-width="1"/><rect x="250" y="80" width="15" height="25" rx="7" fill="#4169E1"/><rect x="265" y="85" width="20" height="8" rx="4" fill="#1E90FF"/><path d="M285 89 Q295 89 300 94" stroke="#87CEEB" stroke-width="2"/><ellipse cx="320" cy="70" rx="3" ry="12" fill="#C0C0C0" transform="rotate(30 320 70)"/><ellipse cx="325" cy="75" rx="3" ry="12" fill="#C0C0C0" transform="rotate(30 325 75)"/><circle cx="322" cy="82" r="2" fill="#808080"/><rect x="60" y="70" width="8" height="25" rx="4" fill="#8B4513"/><rect x="56" y="65" width="16" height="8" rx="2" fill="#DEB887"/><line x1="58" y1="65" x2="58" y2="60" stroke="#654321" stroke-width="1"/><line x1="62" y1="65" x2="62" y2="58" stroke="#654321" stroke-width="1"/><line x1="66" y1="65" x2="66" y2="60" stroke="#654321" stroke-width="1"/><line x1="70" y1="65" x2="70" y2="58" stroke="#654321" stroke-width="1"/><rect x="300" y="120" width="12" height="25" rx="6" fill="#FF6347"/><rect x="302" y="115" width="8" height="5" rx="2" fill="#FF4500"/><text x="306" y="135" text-anchor="middle" fill="#FFF" font-size="6">SHAMPOO</text><ellipse cx="80" cy="130" rx="35" ry="15" fill="#87CEEB"/><ellipse cx="80" cy="125" rx="33" ry="12" fill="#B0E0E6"/><circle cx="65" cy="115" r="3" fill="#FFF" opacity="0.8"/><circle cx="75" cy="110" r="2" fill="#FFF" opacity="0.8"/><circle cx="85" cy="112" r="3" fill="#FFF" opacity="0.8"/><circle cx="95" cy="108" r="2" fill="#FFF" opacity="0.8"/><rect x="200" y="120" width="30" height="8" rx="2" fill="#FFB6C1"/><rect x="205" y="115" width="30" height="8" rx="2" fill="#FF69B4"/><path d="M170 60 Q165 55 160 60 Q165 65 170 60" fill="#FF1493"/><path d="M170 60 Q175 55 180 60 Q175 65 170 60" fill="#FF1493"/><circle cx="170" cy="60" r="2" fill="#DC143C"/><ellipse cx="220" cy="160" rx="20" ry="5" fill="#8B0000"/><circle cx="240" cy="160" r="3" fill="#FFD700"/><path d="M50 50 L52 56 L58 56 L53 60 L55 66 L50 62 L45 66 L47 60 L42 56 L48 56 Z" fill="#FFD700"/><path d="M340 50 L342 56 L348 56 L343 60 L345 66 L340 62 L335 66 L337 60 L332 56 L338 56 Z" fill="#FFD700"/><circle cx="30" cy="100" r="8" fill="#FFFF00"/><circle cx="27" cy="97" r="1" fill="#000"/><circle cx="33" cy="97" r="1" fill="#000"/><path d="M25 103 Q30 107 35 103" stroke="#000" stroke-width="1"/><circle cx="350" cy="100" r="8" fill="#FFFF00"/><circle cx="347" cy="97" r="1" fill="#000"/><circle cx="353" cy="97" r="1" fill="#000"/><path d="M345 103 Q350 107 355 103" stroke="#000" stroke-width="1"/><defs><linearGradient id="salonBg" x1="0%" y1="0%" x2="100%" y2="100%"><stop offset="0%" stop-color="#FFE4E1"/><stop offset="50%" stop-color="#FFC0CB"/><stop offset="100%" stop-color="#FFB6C1"/></linearGradient></defs></svg>