<svg width="384" height="192" viewBox="0 0 384 192" xmlns="http://www.w3.org/2000/svg"><rect width="384" height="192" fill="url(#pouBg)"/><rect x="0" y="0" width="384" height="40" fill="rgba(0,0,0,0.7)"/><text x="192" y="26" text-anchor="middle" fill="#FFFFFF" font-family="Arial, sans-serif" font-size="18" font-weight="bold">POU ONLINE</text><ellipse cx="140" cy="120" rx="50" ry="55" fill="#CD853F"/><circle cx="125" cy="105" r="8" fill="#000"/><circle cx="155" cy="105" r="8" fill="#000"/><ellipse cx="140" cy="125" rx="6" ry="4" fill="#8B4513"/><path d="M125 135 Q140 145 155 135" stroke="#000" stroke-width="2"/><ellipse cx="80" cy="160" rx="20" ry="8" fill="#FF6B6B"/><ellipse cx="80" cy="155" rx="18" ry="6" fill="#FF8E8E"/><circle cx="75" cy="150" r="3" fill="#4ECDC4"/><circle cx="85" cy="148" r="3" fill="#45B7B8"/><rect x="200" y="140" width="30" height="25" rx="15" fill="#87CEEB"/><circle cx="205" cy="135" r="2" fill="#FFF" opacity="0.8"/><circle cx="215" cy="138" r="2" fill="#FFF" opacity="0.8"/><circle cx="225" cy="135" r="2" fill="#FFF" opacity="0.8"/><ellipse cx="250" cy="155" rx="8" ry="12" fill="#FFB6C1"/><circle cx="320" cy="140" r="18" fill="#FF6347"/><path d="M302 140 Q320 125 338 140" stroke="#FFF" stroke-width="2"/><path d="M320 122 Q305 140 320 158" stroke="#FFF" stroke-width="2"/><path d="M60 80 Q55 75 50 80 Q45 75 40 80 Q40 85 50 95 Q60 85 60 80" fill="#FF69B4"/><path d="M340 70 Q337 67 334 70 Q331 67 328 70 Q328 73 334 80 Q340 73 340 70" fill="#FF1493"/><rect x="20" y="50" width="80" height="8" rx="4" fill="#333"/><rect x="22" y="52" width="60" height="4" rx="2" fill="#4CAF50"/><text x="25" y="48" fill="#FFF" font-size="10">Health</text><rect x="120" y="50" width="80" height="8" rx="4" fill="#333"/><rect x="122" y="52" width="65" height="4" rx="2" fill="#2196F3"/><text x="125" y="48" fill="#FFF" font-size="10">Happiness</text><rect x="220" y="50" width="80" height="8" rx="4" fill="#333"/><rect x="222" y="52" width="55" height="4" rx="2" fill="#FF9800"/><text x="225" y="48" fill="#FFF" font-size="10">Energy</text><defs><linearGradient id="pouBg" x1="0%" y1="0%" x2="100%" y2="100%"><stop offset="0%" stop-color="#FFE135"/><stop offset="100%" stop-color="#FFA726"/></linearGradient></defs></svg>