<svg width="242" height="138" viewBox="0 0 242 138" xmlns="http://www.w3.org/2000/svg"><rect width="242" height="138" fill="url(#spaGradient)"/><circle cx="40" cy="25" r="6" fill="rgba(255,255,255,0.3)"/><circle cx="55" cy="18" r="4" fill="rgba(255,255,255,0.25)"/><circle cx="25" cy="35" r="3" fill="rgba(255,255,255,0.4)"/><circle cx="200" cy="20" r="5" fill="rgba(255,255,255,0.35)"/><circle cx="215" cy="30" r="3" fill="rgba(255,255,255,0.3)"/><circle cx="185" cy="15" r="4" fill="rgba(255,255,255,0.25)"/><g opacity="0.15"><ellipse cx="60" cy="50" rx="3" ry="2" fill="#4682B4"/><circle cx="58" cy="48" r="1" fill="#4682B4"/><circle cx="62" cy="48" r="1" fill="#4682B4"/><circle cx="60" cy="45" r="1" fill="#4682B4"/><ellipse cx="180" cy="80" rx="3" ry="2" fill="#20B2AA"/><circle cx="178" cy="78" r="1" fill="#20B2AA"/><circle cx="182" cy="78" r="1" fill="#20B2AA"/><circle cx="180" cy="75" r="1" fill="#20B2AA"/><ellipse cx="80" cy="100" rx="3" ry="2" fill="#FF69B4"/><circle cx="78" cy="98" r="1" fill="#FF69B4"/><circle cx="82" cy="98" r="1" fill="#FF69B4"/><circle cx="80" cy="95" r="1" fill="#FF69B4"/></g><g opacity="0.1"><ellipse cx="200" cy="100" rx="12" ry="10" fill="#4682B4"/><ellipse cx="200" cy="92" rx="8" ry="7" fill="#4682B4"/><ellipse cx="194" cy="87" rx="3" ry="5" fill="#4682B4"/><ellipse cx="206" cy="87" rx="3" ry="5" fill="#4682B4"/><ellipse cx="50" cy="110" rx="10" ry="8" fill="#20B2AA"/><ellipse cx="50" cy="105" rx="7" ry="6" fill="#20B2AA"/><path d="M45 100 L48 95 L50 100 Z" fill="#20B2AA"/><path d="M50 100 L52 95 L55 100 Z" fill="#20B2AA"/></g><path d="M30 70 Q27 67 24 70 Q21 67 18 70 Q18 73 24 80 Q30 73 30 70" fill="rgba(255, 105, 180, 0.4)"/><path d="M220 60 Q218 58 216 60 Q214 58 212 60 Q212 62 216 67 Q220 62 220 60" fill="rgba(255, 20, 147, 0.4)"/><path d="M15 90 L16 93 L19 93 L17 95 L18 98 L15 96 L12 98 L13 95 L11 93 L14 93 Z" fill="rgba(255, 215, 0, 0.5)"/><path d="M225 45 L226 48 L229 48 L227 50 L228 53 L225 51 L222 53 L223 50 L221 48 L224 48 Z" fill="rgba(255, 215, 0, 0.5)"/><circle cx="70" cy="30" r="1" fill="rgba(255,255,255,0.6)"/><circle cx="165" cy="25" r="1" fill="rgba(255,255,255,0.7)"/><circle cx="35" cy="115" r="1.5" fill="rgba(255,255,255,0.5)"/><circle cx="205" cy="125" r="1" fill="rgba(255,255,255,0.6)"/><defs><linearGradient id="spaGradient" x1="0%" y1="0%" x2="100%" y2="100%"><stop offset="0%" stop-color="#E0FFFF"/><stop offset="25%" stop-color="#AFEEEE"/><stop offset="75%" stop-color="#40E0D0"/><stop offset="100%" stop-color="#2DD4BF"/></linearGradient></defs></svg>