<svg width="192" height="192" viewBox="0 0 192 192" xmlns="http://www.w3.org/2000/svg"><circle cx="96" cy="96" r="96" fill="url(#brightBg)" stroke="#FFD700" stroke-width="3"/><ellipse cx="96" cy="110" rx="32" ry="38" fill="#FFFAF0"/><ellipse cx="96" cy="105" rx="28" ry="34" fill="#FFF8DC"/><path d="M68 70 L75 55 L82 70 L90 50 L98 70 L106 55 L114 70 L122 60 L124 75" fill="#FF8C00"/><path d="M78 78 Q96 68 114 78 Q96 85 78 78" fill="#FFFFFF"/><circle cx="84" cy="92" r="6" fill="#2F4F4F"/><circle cx="108" cy="92" r="6" fill="#2F4F4F"/><circle cx="86" cy="90" r="2" fill="#FFF"/><circle cx="110" cy="90" r="2" fill="#FFF"/><ellipse cx="96" cy="102" rx="3" ry="2" fill="#FFB347"/><path d="M86 112 Q96 122 106 112" stroke="#2F4F4F" stroke-width="2"/><rect x="78" y="125" width="36" height="28" rx="6" fill="#FF8C00"/><rect x="90" y="130" width="12" height="15" rx="2" fill="#FFD700"/><circle cx="30" cy="60" r="8" fill="#FFD700"/><circle cx="28" cy="58" r="3" fill="#FFF"/><circle cx="162" cy="50" r="8" fill="#FFB347"/><circle cx="160" cy="48" r="3" fill="#FFF"/><path d="M50 150 L52 156 L58 156 L53 160 L55 166 L50 162 L45 166 L47 160 L42 156 L48 156 Z" fill="#FFD700"/><path d="M142 40 L144 46 L150 46 L145 50 L147 56 L142 52 L137 56 L139 50 L134 46 L140 46 Z" fill="#FFD700"/><circle cx="40" cy="120" r="4" fill="#FFB347"/><circle cx="152" cy="130" r="4" fill="#FF8C00"/><circle cx="25" cy="85" r="2" fill="#FFF"/><circle cx="170" cy="75" r="2" fill="#FFF"/><circle cx="35" cy="140" r="1.5" fill="#FFF"/><circle cx="160" cy="110" r="1.5" fill="#FFF"/><defs><linearGradient id="brightBg" x1="0%" y1="0%" x2="100%" y2="100%"><stop offset="0%" stop-color="#FFF8DC"/><stop offset="25%" stop-color="#FFFAF0"/><stop offset="75%" stop-color="#FFE4B5"/><stop offset="100%" stop-color="#FFD700"/></linearGradient></defs></svg>