<svg width="32" height="32" viewBox="0 0 32 32" xmlns="http://www.w3.org/2000/svg"><defs><linearGradient id="bg" x1="0%" y1="0%" x2="100%" y2="100%"><stop offset="0%" stop-color="#FFF8DC"/><stop offset="50%" stop-color="#DEB887"/><stop offset="100%" stop-color="#D2691E"/></linearGradient></defs><circle cx="16" cy="16" r="16" fill="url(#bg)" stroke="#FFD700" stroke-width="1"/><ellipse cx="16" cy="18" rx="6" ry="8" fill="#F5DEB3"/><ellipse cx="16" cy="17" rx="5" ry="7" fill="#FFF8DC"/><path d="M11 12 L12 8 L13 12 L14 7 L15 12 L16 8 L17 12 L18 9 L19 13" fill="#8B4513" stroke="#654321" stroke-width="0.5"/><circle cx="14" cy="15" r="1.5" fill="#2F4F4F"/><circle cx="18" cy="15" r="1.5" fill="#2F4F4F"/><circle cx="14.2" cy="14.8" r="0.5" fill="#FFF"/><circle cx="18.2" cy="14.8" r="0.5" fill="#FFF"/><path d="M14 19 Q16 21 18 19" stroke="#2F4F4F" stroke-width="1"/><circle cx="10" cy="20" r="2" fill="#D2691E"/><circle cx="10" cy="20" r="1.5" fill="#F4A460"/><circle cx="9.5" cy="19.5" r="0.3" fill="#8B4513"/><circle cx="10.5" cy="20.5" r="0.3" fill="#8B4513"/><circle cx="8" cy="10" r="0.5" fill="#FFD700"/><circle cx="24" cy="8" r="0.5" fill="#FF8C00"/><circle cx="6" cy="24" r="0.5" fill="#DEB887"/><circle cx="26" cy="22" r="0.5" fill="#FFB347"/></svg>