<svg width="16" height="16" viewBox="0 0 16 16" xmlns="http://www.w3.org/2000/svg"><defs><linearGradient id="bg16" x1="0%" y1="0%" x2="100%" y2="100%"><stop offset="0%" stop-color="#FFF8DC"/><stop offset="50%" stop-color="#DEB887"/><stop offset="100%" stop-color="#D2691E"/></linearGradient></defs><circle cx="8" cy="8" r="8" fill="url(#bg16)" stroke="#FFD700" stroke-width="0.5"/><ellipse cx="8" cy="9" rx="3" ry="4" fill="#F5DEB3"/><ellipse cx="8" cy="8.5" rx="2.5" ry="3.5" fill="#FFF8DC"/><path d="M5.5 6 L6 4 L6.5 6 L7 3.5 L7.5 6 L8 4 L8.5 6 L9 4.5 L9.5 6.5" fill="#8B4513" stroke-width="0.2"/><circle cx="7" cy="7.5" r="0.8" fill="#2F4F4F"/><circle cx="9" cy="7.5" r="0.8" fill="#2F4F4F"/><circle cx="7.1" cy="7.4" r="0.25" fill="#FFF"/><circle cx="9.1" cy="7.4" r="0.25" fill="#FFF"/><path d="M7 9.5 Q8 10.5 9 9.5" stroke="#2F4F4F" stroke-width="0.5"/><circle cx="5" cy="10" r="1" fill="#D2691E"/><circle cx="5" cy="10" r="0.8" fill="#F4A460"/><circle cx="4" cy="5" r="0.25" fill="#FFD700"/><circle cx="12" cy="4" r="0.25" fill="#FF8C00"/></svg>