<svg xmlns="http://www.w3.org/2000/svg" width="1200" height="630" viewBox="0 0 1200 630"><defs><linearGradient id="bg" x1="0%" y1="0%" x2="100%" y2="100%"><stop offset="0%" style="stop-color:#8B4513;stop-opacity:1" /><stop offset="100%" style="stop-color:#D2691E;stop-opacity:1" /></linearGradient><linearGradient id="cookieGradient" x1="0%" y1="0%" x2="100%" y2="100%"><stop offset="0%" style="stop-color:#4A4A4A;stop-opacity:1" /><stop offset="50%" style="stop-color:#6A4A6A;stop-opacity:1" /><stop offset="100%" style="stop-color:#8A4A8A;stop-opacity:1" /></linearGradient></defs><rect width="1200" height="630" fill="url(#bg)"/><rect x="60" y="60" width="1080" height="510" rx="20" fill="rgba(255,255,255,0.1)" stroke="rgba(255,255,255,0.2)" stroke-width="3"/><text x="600" y="140" font-family="Arial, sans-serif" font-size="54" font-weight="bold" text-anchor="middle" fill="white" text-shadow="3px 3px 6px rgba(0,0,0,0.5)">Take Care of Shadow Milk</text><text x="600" y="180" font-family="Arial, sans-serif" font-size="24" text-anchor="middle" fill="white" opacity="0.9">Ultimate Virtual Pet Simulator</text><text x="600" y="210" font-family="Arial, sans-serif" font-size="18" text-anchor="middle" fill="white" opacity="0.8">featuring Shadow Milk Cookie from Cookie Run: Kingdom</text><circle cx="320" cy="350" r="100" fill="url(#cookieGradient)" stroke="rgba(255,255,255,0.3)" stroke-width="4"/><circle cx="295" cy="320" r="12" fill="white"/><circle cx="345" cy="320" r="12" fill="white"/><circle cx="298" cy="316" r="6" fill="black"/><circle cx="348" cy="316" r="6" fill="black"/><path d="M 285 370 Q 320 395 355 370" stroke="white" stroke-width="6" stroke-linecap="round"/><text x="580" y="280" font-family="Arial, sans-serif" font-size="28" font-weight="bold" fill="white">Game Features:</text><circle cx="600" cy="310" r="4" fill="white"/><text x="620" y="318" font-family="Arial, sans-serif" font-size="20" fill="white">Feed, Care, or Prank Your Virtual Pet</text><circle cx="600" cy="345" r="4" fill="white"/><text x="620" y="353" font-family="Arial, sans-serif" font-size="20" fill="white">No Rules - Complete Creative Freedom</text><circle cx="600" cy="380" r="4" fill="white"/><text x="620" y="388" font-family="Arial, sans-serif" font-size="20" fill="white">Multiple Interactive Rooms</text><circle cx="600" cy="415" r="4" fill="white"/><text x="620" y="423" font-family="Arial, sans-serif" font-size="20" fill="white">Viral TikTok Sensation</text><circle cx="600" cy="450" r="4" fill="white"/><text x="620" y="458" font-family="Arial, sans-serif" font-size="20" fill="white">Free to Play in Browser</text><rect x="120" y="480" width="400" height="60" rx="10" fill="rgba(255,255,255,0.1)" stroke="rgba(255,255,255,0.2)" stroke-width="2"/><text x="140" y="505" font-family="Arial, sans-serif" font-size="14" fill="white">Pet Status:</text><text x="140" y="525" font-family="Arial, sans-serif" font-size="12" fill="white">Hunger</text><rect x="185" y="518" width="80" height="10" rx="5" fill="rgba(255,255,255,0.2)"/><rect x="187" y="520" width="60" height="6" rx="3" fill="#4CAF50"/><text x="280" y="525" font-family="Arial, sans-serif" font-size="12" fill="white">Energy</text><rect x="325" y="518" width="80" height="10" rx="5" fill="rgba(255,255,255,0.2)"/><rect x="327" y="520" width="70" height="6" rx="3" fill="#2196F3"/><text x="420" y="525" font-family="Arial, sans-serif" font-size="12" fill="white">Happiness</text><rect x="485" y="518" width="80" height="10" rx="5" fill="rgba(255,255,255,0.2)"/><rect x="487" y="520" width="75" height="6" rx="3" fill="#FF5722"/><rect x="580" y="480" width="300" height="60" rx="15" fill="rgba(255,255,255,0.15)" stroke="rgba(255,255,255,0.4)" stroke-width="3"/><text x="730" y="505" font-family="Arial, sans-serif" font-size="18" font-weight="bold" text-anchor="middle" fill="white">Play Now for Free!</text><text x="730" y="525" font-family="Arial, sans-serif" font-size="14" text-anchor="middle" fill="white" opacity="0.9">takecareofshadowmilk.cc</text><circle cx="150" cy="150" r="3" fill="white" opacity="0.8"><animate attributeName="opacity" values="0.8;0.2;0.8" dur="2s" repeatCount="indefinite"/></circle><circle cx="1050" cy="180" r="2" fill="white" opacity="0.6"><animate attributeName="opacity" values="0.6;0.1;0.6" dur="1.5s" repeatCount="indefinite"/></circle><circle cx="200" cy="500" r="2.5" fill="white" opacity="0.7"><animate attributeName="opacity" values="0.7;0.2;0.7" dur="1.8s" repeatCount="indefinite"/></circle><circle cx="1000" cy="450" r="3" fill="white" opacity="0.9"><animate attributeName="opacity" values="0.9;0.3;0.9" dur="2.2s" repeatCount="indefinite"/></circle><rect x="900" y="280" width="50" height="40" rx="5" fill="rgba(255,255,255,0.15)" stroke="rgba(255,255,255,0.3)" stroke-width="2"/><text x="925" y="305" font-family="Arial, sans-serif" font-size="20" text-anchor="middle" fill="white">🛏️</text><rect x="960" y="280" width="50" height="40" rx="5" fill="rgba(255,255,255,0.15)" stroke="rgba(255,255,255,0.3)" stroke-width="2"/><text x="985" y="305" font-family="Arial, sans-serif" font-size="20" text-anchor="middle" fill="white">🍽️</text><rect x="1020" y="280" width="50" height="40" rx="5" fill="rgba(255,255,255,0.15)" stroke="rgba(255,255,255,0.3)" stroke-width="2"/><text x="1045" y="305" font-family="Arial, sans-serif" font-size="20" text-anchor="middle" fill="white">🚿</text></svg>