<svg width="32" height="32" viewBox="0 0 32 32" fill="none" xmlns="http://www.w3.org/2000/svg">
  <!-- Background circle -->
  <circle cx="16" cy="16" r="15" fill="#2563eb" stroke="#1d4ed8" stroke-width="2"/>
  
  <!-- Globe/World icon -->
  <circle cx="16" cy="16" r="10" fill="none" stroke="#ffffff" stroke-width="2"/>
  
  <!-- Latitude lines -->
  <path d="M6 16 L26 16" stroke="#ffffff" stroke-width="1" opacity="0.7"/>
  <path d="M9 11 L23 11" stroke="#ffffff" stroke-width="1" opacity="0.5"/>
  <path d="M9 21 L23 21" stroke="#ffffff" stroke-width="1" opacity="0.5"/>
  
  <!-- Longitude lines -->
  <path d="M16 6 Q21 11 26 16 Q21 21 16 26 Q11 21 6 16 Q11 11 16 6" stroke="#ffffff" stroke-width="1" opacity="0.5" fill="none"/>
  <path d="M16 6 Q11 11 6 16 Q11 21 16 26 Q21 21 26 16 Q21 11 16 6" stroke="#ffffff" stroke-width="1" opacity="0.5" fill="none"/>
  
  <!-- Pin/marker -->
  <circle cx="19" cy="13" r="2" fill="#ef4444"/>
  <path d="M19 15 L19 17" stroke="#ef4444" stroke-width="1"/>
</svg>