<svg width="242" height="138" viewBox="0 0 242 138" xmlns="http://www.w3.org/2000/svg"><rect width="242" height="138" fill="url(#shadowGradient)"/><ellipse cx="50" cy="30" rx="40" ry="15" fill="rgba(0,0,0,0.2)" opacity="0.6"/><ellipse cx="190" cy="25" rx="35" ry="12" fill="rgba(0,0,0,0.15)" opacity="0.5"/><ellipse cx="120" cy="15" rx="30" ry="10" fill="rgba(0,0,0,0.1)" opacity="0.4"/><circle cx="60" cy="80" r="12" fill="rgba(139, 69, 19, 0.3)" opacity="0.7"/><circle cx="180" cy="90" r="10" fill="rgba(105, 105, 105, 0.4)" opacity="0.6"/><circle cx="200" cy="50" r="8" fill="rgba(75, 85, 99, 0.5)" opacity="0.5"/><path d="M40 70 L45 60 L50 70 L55 55 L60 70 L65 60 L70 70" fill="rgba(70, 130, 180, 0.4)" opacity="0.6"/><path d="M160 100 L165 90 L170 100 L175 85 L180 100" fill="rgba(70, 130, 180, 0.3)" opacity="0.5"/><circle cx="30" cy="50" r="2" fill="rgba(255, 255, 255, 0.7)" opacity="0.8"/><circle cx="210" cy="40" r="1.5" fill="rgba(255, 255, 255, 0.6)" opacity="0.7"/><circle cx="90" cy="35" r="1" fill="rgba(255, 255, 255, 0.8)" opacity="0.9"/><circle cx="160" cy="30" r="2" fill="rgba(255, 255, 255, 0.5)" opacity="0.6"/><path d="M25 100 L26 103 L29 103 L27 105 L28 108 L25 106 L22 108 L23 105 L21 103 L24 103 Z" fill="rgba(255, 255, 255, 0.6)" opacity="0.7"/><path d="M215 80 L216 83 L219 83 L217 85 L218 88 L215 86 L212 88 L213 85 L211 83 L214 83 Z" fill="rgba(255, 255, 255, 0.5)" opacity="0.6"/><circle cx="45" cy="110" r="3" fill="rgba(139, 69, 19, 0.4)" opacity="0.6"/><circle cx="55" cy="115" r="2" fill="rgba(160, 82, 45, 0.4)" opacity="0.5"/><circle cx="185" cy="115" r="2.5" fill="rgba(139, 69, 19, 0.3)" opacity="0.4"/><circle cx="195" cy="120" r="2" fill="rgba(160, 82, 45, 0.3)" opacity="0.4"/><circle cx="75" cy="60" r="4" fill="rgba(75, 85, 99, 0.4)" opacity="0.6"/><circle cx="165" cy="65" r="3" fill="rgba(55, 65, 81, 0.5)" opacity="0.7"/><rect x="15" y="105" width="30" height="20" rx="2" fill="rgba(0,0,0,0.1)" opacity="0.3"/><text x="30" y="117" text-anchor="middle" fill="rgba(255,255,255,0.6)" font-size="8" opacity="0.7">Kitchen</text><rect x="60" y="105" width="30" height="20" rx="2" fill="rgba(0,0,0,0.1)" opacity="0.3"/><text x="75" y="117" text-anchor="middle" fill="rgba(255,255,255,0.6)" font-size="8" opacity="0.7">Bedroom</text><rect x="105" y="105" width="30" height="20" rx="2" fill="rgba(0,0,0,0.1)" opacity="0.3"/><text x="120" y="117" text-anchor="middle" fill="rgba(255,255,255,0.6)" font-size="8" opacity="0.7">Bathroom</text><path d="M200 100 Q195 95 190 100 Q185 95 180 100 Q180 105 190 115 Q200 105 200 100" fill="rgba(255, 20, 147, 0.3)" opacity="0.5"/><path d="M70 45 Q67 42 64 45 Q61 42 58 45 Q58 48 64 55 Q70 48 70 45" fill="rgba(255, 105, 180, 0.4)" opacity="0.6"/><ellipse cx="180" cy="30" rx="25" ry="8" fill="rgba(255, 69, 0, 0.3)" opacity="0.6"/><text x="180" y="33" text-anchor="middle" fill="rgba(255,255,255,0.8)" font-size="6" font-weight="bold">NO RULES</text><defs><linearGradient id="shadowGradient" x1="0%" y1="0%" x2="100%" y2="100%"><stop offset="0%" stop-color="#374151"/><stop offset="30%" stop-color="#4B5563"/><stop offset="70%" stop-color="#6B7280"/><stop offset="100%" stop-color="#4B5563"/></linearGradient></defs></svg>