<svg width="384" height="192" viewBox="0 0 384 192" xmlns="http://www.w3.org/2000/svg"><rect width="384" height="192" fill="url(#shadowMilkBg)"/><rect x="0" y="0" width="384" height="40" fill="rgba(75, 85, 99, 0.9)"/><text x="192" y="26" text-anchor="middle" fill="#FFFFFF" font-family="Arial, sans-serif" font-size="16" font-weight="bold">TAKE CARE OF SHADOW MILK</text><ellipse cx="140" cy="110" rx="35" ry="40" fill="#87CEEB"/><ellipse cx="140" cy="105" rx="32" ry="35" fill="#B0E0E6"/><path d="M105 75 L115 60 L125 75 L135 55 L145 75 L155 60 L165 75 L175 65 Z" fill="#4682B4"/><path d="M120 80 Q140 70 160 80 Q140 85 120 80" fill="#FFFFFF"/><circle cx="125" cy="95" r="6" fill="#000"/><circle cx="155" cy="95" r="6" fill="#000"/><circle cx="127" cy="93" r="2" fill="#FFF"/><circle cx="157" cy="93" r="2" fill="#FFF"/><ellipse cx="140" cy="105" rx="3" ry="2" fill="#4169E1"/><path d="M130 115 Q140 125 150 115" stroke="#000" stroke-width="2"/><rect x="115" y="125" width="50" height="35" rx="8" fill="#2F4F4F"/><rect x="135" y="130" width="10" height="15" rx="2" fill="#4682B4"/><rect x="20" y="50" width="60" height="25" rx="5" fill="rgba(255,255,255,0.2)" stroke="rgba(255,255,255,0.3)" stroke-width="1"/><text x="50" y="65" text-anchor="middle" fill="#FFF" font-size="10">BEDROOM</text><rect x="20" y="80" width="60" height="25" rx="5" fill="rgba(255,255,255,0.2)" stroke="rgba(255,255,255,0.3)" stroke-width="1"/><text x="50" y="95" text-anchor="middle" fill="#FFF" font-size="10">KITCHEN</text><rect x="20" y="110" width="60" height="25" rx="5" fill="rgba(255,255,255,0.2)" stroke="rgba(255,255,255,0.3)" stroke-width="1"/><text x="50" y="125" text-anchor="middle" fill="#FFF" font-size="10">BATHROOM</text><ellipse cx="250" cy="70" rx="12" ry="8" fill="#D2691E"/><text x="270" y="75" fill="#FFF" font-size="8">Food</text><circle cx="250" cy="100" r="10" fill="#FF6347"/><text x="270" y="105" fill="#FFF" font-size="8">Toy</text><rect x="240" y="120" width="20" height="15" rx="3" fill="#87CEEB"/><text x="270" y="130" fill="#FFF" font-size="8">Clean</text><rect x="20" y="155" width="80" height="6" rx="3" fill="rgba(255,255,255,0.3)"/><rect x="22" y="157" width="60" height="2" rx="1" fill="#4CAF50"/><text x="25" y="152" fill="#FFF" font-size="8">HUNGER</text><rect x="110" y="155" width="80" height="6" rx="3" fill="rgba(255,255,255,0.3)"/><rect x="112" y="157" width="65" height="2" rx="1" fill="#2196F3"/><text x="115" y="152" fill="#FFF" font-size="8">ENERGY</text><rect x="200" y="155" width="80" height="6" rx="3" fill="rgba(255,255,255,0.3)"/><rect x="202" y="157" width="70" height="2" rx="1" fill="#FF9800"/><text x="205" y="152" fill="#FFF" font-size="8">HEALTH</text><rect x="290" y="155" width="80" height="6" rx="3" fill="rgba(255,255,255,0.3)"/><rect x="292" y="157" width="55" height="2" rx="1" fill="#9C27B0"/><text x="295" y="152" fill="#FFF" font-size="8">HYGIENE</text><text x="320" y="70" fill="#FFD700" font-size="12">♥</text><text x="320" y="100" fill="#FF69B4" font-size="12">★</text><ellipse cx="320" cy="50" rx="30" ry="12" fill="#FF4500"/><text x="320" y="55" text-anchor="middle" fill="#FFF" font-size="8" font-weight="bold">NO RULES!</text><circle cx="60" cy="40" r="1" fill="#FFF" opacity="0.8"/><circle cx="180" cy="45" r="1" fill="#FFF" opacity="0.6"/><circle cx="340" cy="35" r="1" fill="#FFF" opacity="0.7"/><defs><linearGradient id="shadowMilkBg" x1="0%" y1="0%" x2="100%" y2="100%"><stop offset="0%" stop-color="#4B5563"/><stop offset="50%" stop-color="#6B7280"/><stop offset="100%" stop-color="#374151"/></linearGradient></defs></svg>